<svg id="design" xmlns="http://www.w3.org/2000/svg" viewBox="0 0 200 180"><defs><style>.cls-1{fill:#d6d6d6;}.cls-2{fill:#fff;}.cls-3,.cls-4,.cls-5,.cls-7{fill:none;stroke-miterlimit:10;stroke-width:4px;}.cls-3,.cls-4,.cls-5{stroke:#005eb8;}.cls-4{stroke-dasharray:11.91 4.96;}.cls-5{stroke-dasharray:10.36 4.32;}.cls-6{fill:#005eb8;}.cls-7{stroke:#fff;}.cls-8{fill:#d6eefc;}.cls-9{fill:#d9935c;}.cls-10{fill:#cb7d45;}.cls-11{fill:#fbb040;}.cls-12{fill:#ed8b00;}</style></defs><title>service-options-python-devs</title><path class="cls-1" d="M97.06,13.14V74.61a15.39,15.39,0,0,1-9.61,14.27q-.5.2-1,.37a15.34,15.34,0,0,1-4.77.75H20.2A13.14,13.14,0,0,1,7.06,76.86V13.14A13.14,13.14,0,0,1,20.2,0H83.92A13.14,13.14,0,0,1,97.06,13.14Z"/><path class="cls-2" d="M52.57,15.7h0a15.44,15.44,0,0,0-5.82-.17A18.77,18.77,0,0,0,39,18.47c-3,2-7.33,6.4-2.49,18.4L38.76,41c-.77,9-4.44,9-4.44,9a8.23,8.23,0,0,0,2.39.79s1.13-.43,1.36-1.06a4,4,0,0,1-.52,1.3s6.24.59,9.36-1.77C48.6,48,50.46,45,51.66,41.91l4.72.33A9.47,9.47,0,0,1,53.43,49s5.83.57,7.8-1a5.42,5.42,0,0,1-.75,1.14s6.51.23,9.2-1.8S70.64,12,52.57,15.7Z"/><path class="cls-2" d="M75.13,90H29a45.86,45.86,0,0,1-.69-10.12A21,21,0,0,1,32.48,69.3a36.13,36.13,0,0,1,7.68-7.79l.29-.05c.33-.06.9-.15,1.51-.2h0c.57-.3.81-2.39.88-4.84,0-.68,0-1.39,0-2.09s0-1.22,0-1.82q0-.42,0-.84v-.23c0-.12,0-.23,0-.35s0-.18,0-.27,0-.27,0-.41l0-.54s0-.07,0-.11l0-.49,0-.56v-.14c0-.29,0-.55,0-.79,0-.06,0-.13,0-.19s0-.14,0-.21,0-.13,0-.19,0-.37,0-.51,0-.06,0-.09v-.29l7.78-1.54h0l5.33-1.06.62-.12.16,0h0a46.7,46.7,0,0,0,.3,5.53A37.26,37.26,0,0,0,57.4,53h0c1,4.3,2.48,6.89,3.57,7.32h0l.11,0C66.4,61.46,74.46,75.22,75.13,90Z"/><path class="cls-2" d="M42.55,46.31s.3,4.13.31,8c7.34-.21,11.22-6.9,12.81-10.61Z"/><path class="cls-2" d="M40.1,50s17.37.29,17.38-10.53,2.26-18.07-8.83-18.71-13.25,3.49-14.13,7.1S35.59,49.64,40.1,50Z"/><path class="cls-2" d="M40.75,20.49S45.5,33.18,52.8,35.06,63.26,35,63.26,35A20.67,20.67,0,0,1,56.5,22.77S44.33,14.45,40.75,20.49Z"/><path class="cls-2" d="M41.92,21.52s-3.55,2.83-4.42,5.59-1.26,8.43-2.91,8.23c0,0-3.58-8.63.44-13.51C39.31,16.66,41.92,21.52,41.92,21.52Z"/><path class="cls-2" d="M41.26,21.95s3.39,13.29,12.6,17.55c0,0-9.21-8.17-10-16.94S41.26,21.95,41.26,21.95Z"/><path class="cls-2" d="M85.19,83.43l-.87-2.09-.43-1a.07.07,0,0,0,0,0c-4-9.53-7.19-16.73-7.5-17.25-.9-1.51-13.13-3-14.92-3-1.3,0-2-4.31-2.3-6.67a.88.88,0,0,0-1.36-.62L57.4,53l-.48.31-.48.29-.32.19-.37.2-.33.18-.34.17-.33.16-.26.12-.49.21-.35.15-.25.1c-.45.18-.89.34-1.34.48a18.54,18.54,0,0,1-9.23.87l-.15,0A1.42,1.42,0,0,0,41,58.06c.27,1.23.34,2.57-.35,3.24-3.11.69-10.67,2.62-12.08,5.31-1,1.93-1.11,13.29-1.66,23.38H81.67a15.34,15.34,0,0,0,4.77-.75q.52-.17,1-.37C86.68,87,85.93,85.2,85.19,83.43Z"/><path class="cls-2" d="M68.57,90H61.22c1.86-3.08,3.63-5.31,4.66-5.44S67.69,86.77,68.57,90Z"/><path class="cls-2" d="M61.45,60s-9.16,5.8-16.09,4.43c0,0-1.66-1.05.63-2.11s7.17-3.92,6.07-6.81a22.62,22.62,0,0,0,5.73-2.8.87.87,0,0,1,1.36.62C59.44,55.73,60.15,60,61.45,60Z"/><line class="cls-3" x1="89.49" y1="25.4" x2="95.49" y2="25.4"/><line class="cls-4" x1="100.45" y1="25.4" x2="131.71" y2="25.4"/><polyline class="cls-3" points="134.19 25.4 140.19 25.4 140.19 31.4"/><line class="cls-5" x1="140.19" y1="35.72" x2="140.19" y2="77.6"/><line class="cls-3" x1="140.19" y1="79.76" x2="140.19" y2="85.76"/><polygon class="cls-6" points="92.4 35.37 75.13 25.4 92.4 15.43 92.4 35.37"/><path class="cls-6" d="M140.44,48a22.82,22.82,0,0,1-22.58-23A22.59,22.59,0,1,1,163,25,22.82,22.82,0,0,1,140.44,48Z"/><path class="cls-2" d="M140.44,4A20.79,20.79,0,0,1,161,25a20.59,20.59,0,1,1-41.17,0A20.79,20.79,0,0,1,140.44,4m0-4a24.82,24.82,0,0,0-24.58,25A24.59,24.59,0,1,0,165,25,24.82,24.82,0,0,0,140.44,0Z"/><line class="cls-7" x1="140.44" y1="14.33" x2="140.44" y2="35.67"/><line class="cls-7" x1="129.77" y1="25" x2="151.11" y2="25"/><path class="cls-8" d="M192.94,90.33V162a18,18,0,0,1-11.21,16.65q-.58.24-1.18.43A17.89,17.89,0,0,1,175,180H103.27a15.33,15.33,0,0,1-15.33-15.33V90.33A15.33,15.33,0,0,1,103.27,75h74.34A15.33,15.33,0,0,1,192.94,90.33Z"/><path class="cls-6" d="M141,93.31h0a18,18,0,0,0-6.79-.2,21.9,21.9,0,0,0-9.09,3.43c-3.5,2.36-8.55,7.47-2.9,21.47l2.68,4.82c-.89,10.49-5.18,10.49-5.18,10.49a9.6,9.6,0,0,0,2.78.93s1.32-.51,1.59-1.24a4.71,4.71,0,0,1-.6,1.52s7.28.69,10.92-2.06c2-1.5,4.14-5,5.54-8.58l5.51.39c.06,2.37-.79,5.08-3.44,7.91,0,0,6.8.67,9.1-1.22a6.33,6.33,0,0,1-.87,1.33s7.6.27,10.73-2.1S162.12,89,141,93.31Z"/><path class="cls-9" d="M167.36,180H113.57a53.51,53.51,0,0,1-.8-11.8,24.45,24.45,0,0,1,4.83-12.35,42.15,42.15,0,0,1,9-9.09l.34-.06c.38-.07,1-.17,1.76-.24h0c.67-.35.94-2.79,1-5.64,0-.79,0-1.62,0-2.44s0-1.42,0-2.13q0-.49,0-1V135c0-.14,0-.27,0-.41s0-.21,0-.31,0-.32,0-.48,0-.42,0-.63c0,0,0-.09,0-.13l0-.57,0-.65v-.16c0-.33,0-.64-.05-.92,0-.08,0-.15,0-.22s0-.17,0-.25,0-.15,0-.22c0-.24,0-.43,0-.59s0-.07,0-.1V129l9.08-1.8h0l6.22-1.23.73-.14.18,0h0a54.49,54.49,0,0,0,.35,6.45,43.47,43.47,0,0,0,.76,4.56h0c1.13,5,2.9,8,4.17,8.54h0l.13,0C157.17,146.7,166.58,162.76,167.36,180Z"/><path class="cls-10" d="M129.35,129s.35,4.82.36,9.35c8.56-.24,13.09-8.05,14.95-12.38Z"/><path class="cls-9" d="M126.49,133.33s20.26.33,20.28-12.29,2.64-21.08-10.3-21.83S121,103.28,120,107.49,121.22,132.91,126.49,133.33Z"/><path class="cls-6" d="M127.24,98.9s5.55,14.81,14.06,17,12.21-.09,12.21-.09a24.11,24.11,0,0,1-7.89-14.24S131.43,91.86,127.24,98.9Z"/><path class="cls-6" d="M128.62,100.11s-4.14,3.31-5.15,6.52-1.46,9.83-3.39,9.61c0,0-4.18-10.06.52-15.76C125.57,94.44,128.62,100.11,128.62,100.11Z"/><path class="cls-6" d="M127.85,100.61s4,15.51,14.7,20.47c0,0-10.74-9.53-11.66-19.76S127.85,100.61,127.85,100.61Z"/><path class="cls-11" d="M179.09,172.34l-1-2.44-.5-1.19a.08.08,0,0,0,0,0c-4.68-11.12-8.39-19.51-8.76-20.13-1-1.77-15.31-3.52-17.41-3.51-1.52,0-2.35-5-2.69-7.78a1,1,0,0,0-1.59-.72l-.45.3-.56.36-.56.34-.38.22-.43.23-.39.2-.39.2-.39.19-.31.14-.57.25-.41.17-.29.12c-.52.2-1,.39-1.56.56a21.63,21.63,0,0,1-10.76,1l-.17,0a1.66,1.66,0,0,0-2,2c.31,1.43.4,3-.41,3.78-3.62.81-12.44,3.06-14.1,6.2-1.19,2.25-1.3,15.5-1.94,27.28H175a17.89,17.89,0,0,0,5.56-.88q.6-.19,1.18-.43C180.84,176.52,180,174.39,179.09,172.34Z"/><path class="cls-12" d="M159.7,180h-8.58c2.17-3.59,4.24-6.2,5.43-6.35C157.59,173.53,158.68,176.23,159.7,180Z"/><path class="cls-12" d="M151.4,145s-10.68,6.77-18.77,5.16c0,0-1.94-1.23.74-2.46,2.51-1.15,8.36-4.57,7.08-7.94a26.39,26.39,0,0,0,6.68-3.27,1,1,0,0,1,1.58.72C149.05,140,149.88,145,151.4,145Z"/></svg>