<?xml version="1.0" encoding="utf-8"?>
<!-- Generator: Adobe Illustrator 27.1.1, SVG Export Plug-In . SVG Version: 6.00 Build 0)  -->
<svg version="1.1" id="Layer_1" xmlns="http://www.w3.org/2000/svg" xmlns:xlink="http://www.w3.org/1999/xlink" x="0px" y="0px"
	 viewBox="0 0 841.89 595.28" style="enable-background:new 0 0 841.89 595.28;" xml:space="preserve">
<style type="text/css">
	.st0{fill:#BA4F98;}
	.st1{fill:#78C7CE;}
</style>
<g>
	<g id="Group_1">
		<path id="Path_1" class="st0" d="M230.6,154.45c12.05,25.89,20.76,51.52,16.1,80.3c-0.08,0.48,0.24,0.94,0.72,1.02
			c0.2,0.03,0.4,0,0.58-0.1c11.59-6.16,19.77-17.22,22.28-30.1c3.4-16.82-0.81-32.6-7.98-47.68c-7.76-14.61-13.47-30.22-16.95-46.4
			c-3.2-13.62-1.72-27.93,4.19-40.61c-3.14,3.49-6.37,6.9-9.41,10.47c-18.08,21.21-33.81,43.87-42.5,70.7
			c-6.4,19.74-7.56,39.47,1.9,58.76c5.02,9.77,12.03,18.39,20.57,25.29c0.39,0.31,0.96,0.24,1.27-0.16
			c0.15-0.19,0.21-0.43,0.18-0.66c-0.58-4.51-1.96-9.61-2.37-13.68c0-0.15-0.03-0.29-0.04-0.43c-2.23-22.54,1.59-45.27,11.07-65.84
			L230.6,154.45z"/>
		<path id="Path_2" class="st0" d="M626.37,462.97c-3.54-7.46-5.36-15.63-5.32-23.89c0.16-10.66,2.36-21.2,6.48-31.03
			c3.91-10.17,9.95-19.38,17.7-27.03c6.51-6.82,15.49-10.73,24.91-10.86c7.89-0.56,15.4,3.46,19.3,10.34
			c4.18,7.93,6.22,16.82,5.9,25.79c0.06,11.46-2.3,22.8-6.92,33.29c-4.05,9.67-10.28,18.27-18.21,25.14
			c-6.53,5.93-14.99,9.3-23.82,9.49C638.03,475.02,630.03,470.55,626.37,462.97 M668.47,457.88c4.98-6.14,8.6-13.27,10.63-20.91
			c2.47-8.45,3.72-17.2,3.71-26c0.3-8.1-1.22-16.17-4.44-23.6c-2.06-5.5-7.31-9.15-13.18-9.18c-5.81,0.3-11.26,2.89-15.15,7.21
			c-5.47,5.64-9.6,12.43-12.09,19.89c-3.21,9.07-4.79,18.64-4.66,28.27c-0.48,8.34,1.25,16.66,5.02,24.11
			c2.74,5.22,8.17,8.45,14.06,8.38C658.7,465.94,664.64,462.94,668.47,457.88"/>
		<path id="Path_3" class="st0" d="M745.24,472.44c0-0.19,0.2-1.26,0.59-3.2c0.63-3.13,1.02-6.3,1.16-9.49
			c-0.04-2.34-0.48-4.66-1.31-6.85c-2.33-6.5-5.31-12.74-8.89-18.65l-5.69-10.49c-3.88-7.19-7.48-14.52-10.78-22l-1.31-3.06h-0.29
			l-9.18,57.98c-0.14,2.23-0.95,4.37-2.33,6.12v0.15c1.87,0.71,3.83,1.16,5.82,1.31c1.26,0.02,2.51-0.25,3.64-0.8
			c0.63-0.37,1.32-0.64,2.04-0.8c0.47,0,0.73,0.29,0.73,0.87c-0.21,1.27-0.89,2.41-1.9,3.21c-3.7,3.98-6.7,5.98-9.01,5.98
			c-1.46-0.15-2.89-0.55-4.23-1.17c-0.29-0.09-1-0.34-2.11-0.73c-1.05-0.37-2.16-0.57-3.28-0.58c-1.63,0.02-3.23,0.45-4.66,1.24
			c-0.86,0.54-1.79,0.95-2.77,1.24c-0.47,0-0.73-0.44-0.73-1.31c0.04-1.13,0.37-2.23,0.95-3.2c0.6-1.13,1.41-2.12,2.4-2.92
			c1.58-1.33,3.09-2.74,4.51-4.23c0.82-0.96,1.44-2.07,1.82-3.28c0.63-2.27,1.1-4.58,1.38-6.92l11.07-69.93l-4.66-0.29
			c-2.03-0.29-4.07-0.44-6.12-0.44c-2.45-0.07-4.88,0.37-7.14,1.31c-1.98,0.9-3.68,2.31-4.95,4.08l-1.02,1.53
			c-0.47,0.73-0.92,1.1-1.31,1.1c-0.47,0-0.73-0.44-0.73-1.31c-0.02-0.85,0.12-1.69,0.44-2.48c0.8-3.84,3.04-7.24,6.26-9.49
			c3.49-2.32,7.61-3.49,11.8-3.35l4.81,0.15c2.53,0.2,4.67,0.29,6.41,0.29c1.85,0,3.7-0.1,5.54-0.29l3.06-0.15
			c-0.44,2.01-0.68,4.06-0.73,6.12c0.16,4.9,1.17,9.73,2.99,14.28c2.62,6.81,5.71,13.43,9.25,19.81l8.16,15.44
			c2.83,4.95,5.36,10.05,7.59,15.29h0.29l8.02-53.46c1.07-8.02,3.19-15.86,6.33-23.31c2.33-5.53,5.95-10.43,10.56-14.28
			c2.9-2.5,6.23-4.45,9.84-5.75c4.46-1.41,9.08-2.26,13.75-2.55c1.42-0.17,2.83-0.42,4.23-0.73c0.55-0.29,1.14-0.48,1.75-0.58
			c0.47,0,0.73,0.29,0.73,0.87c-0.17,1.52-0.9,2.92-2.04,3.94c-1.94,1.71-4.41,2.68-7,2.77c-0.58,0.1-2.06,0.27-4.44,0.51
			c-2.28,0.21-4.49,0.83-6.55,1.82c-2.11,1.06-4.01,2.49-5.61,4.23c-3.3,3.73-5.83,8.09-7.43,12.81
			c-2.04,5.92-3.55,12.02-4.51,18.21l-11.38,69.78c-0.45,2.57-1.36,5.04-2.7,7.28c-1.38,2.54-3.04,4.91-4.95,7.07
			c-1.8,1.99-3.28,2.99-4.44,2.99c-0.85,0.12-1.63-0.47-1.75-1.31c-0.02-0.15-0.02-0.29,0-0.44"/>
		<path id="Path_4" class="st0" d="M449.17,423.89h-34.3c-2.62,0-4.74-2.12-4.74-4.74v-1.12c0-2.62,2.12-4.74,4.74-4.74h34.3
			c2.62,0,4.74,2.12,4.74,4.74v1.12C453.91,421.77,451.79,423.89,449.17,423.89"/>
		<path id="Path_5" class="st0" d="M448.61,425.18h-33.2c-3.64,0-6.6-2.94-6.61-6.59c0-3.64,2.94-6.6,6.59-6.61
			c0.01,0,0.01,0,0.02,0h33.2c3.64,0,6.6,2.94,6.61,6.59c0,3.64-2.94,6.6-6.59,6.61C448.62,425.18,448.62,425.18,448.61,425.18
			 M415.41,414.55c-2.23,0-4.03,1.8-4.03,4.03c0,2.23,1.8,4.03,4.03,4.03h33.2c2.23,0,4.03-1.8,4.03-4.03c0-2.23-1.8-4.03-4.03-4.03
			H415.41z"/>
		<path id="Path_6" class="st0" d="M604.52,423.89h-34.3c-2.62,0-4.74-2.12-4.74-4.74v-1.12c0-2.62,2.12-4.74,4.74-4.74h34.3
			c2.62,0,4.74,2.12,4.74,4.74v1.12C609.26,421.77,607.14,423.89,604.52,423.89"/>
		<path id="Path_7" class="st0" d="M603.96,425.18h-33.2c-3.64,0-6.6-2.94-6.61-6.59c0-3.64,2.94-6.6,6.59-6.61
			c0.01,0,0.01,0,0.02,0h33.2c3.64,0,6.6,2.94,6.61,6.59c0,3.64-2.94,6.6-6.59,6.61C603.97,425.18,603.97,425.18,603.96,425.18
			 M570.76,414.55c-2.23,0-4.03,1.8-4.03,4.03c0,2.23,1.8,4.03,4.03,4.03h33.2c2.23,0,4.03-1.8,4.03-4.03c0-2.23-1.8-4.03-4.03-4.03
			l0,0H570.76z"/>
		<path id="Path_8" class="st0" d="M138.14,458.88c-10.07,9.81-20.39,16.17-30.48,16.7c-48.23,2.65-11.38-120.85-17.76-122.44
			c-5.51-0.82-9.31-5.96-8.49-11.47c0.82-5.51,5.96-9.31,11.47-8.49c1.95,0.29,3.77,1.15,5.24,2.46
			c10.33,7.16,17.23,8.75,29.15,4.24c1.45-0.68,3.18-0.05,3.86,1.4c0.48,1.03,0.32,2.24-0.41,3.1
			c-27.29,32.87-41.35,106.54-15.9,112.11c6.09,1.33,12.45-1.85,18.82-7.95c-4.41-13.77-6.12-28.26-5.04-42.68
			c1.85-35.25,19.61-69.97,40.55-69.97c30.21,0,14.57,59.63-13.25,100.97c2.65,9.81,7.16,16.96,14.31,19.88
			c26.24,10.34,56.19-69.96,30.21-100.18c-13.51-15.9,10.07-26.77,20.67-10.33c22.79,35.78-15.65,129.6-54.59,129.6
			c-11.91,0.19-22.9-6.38-28.36-16.96 M168.93,356.77c-5.89-4.59-16.37,32.72-14.63,61.11C167.4,393.44,175.7,361.78,168.93,356.77"
			/>
		<path id="Path_9" class="st0" d="M240.33,398.16c2.95-8.84,3.68-14.18,0-17.49h16.02c5.69,0,7.18,3.13,5.69,8.65
			c-0.92,3.13-14.91,57.44-16.2,61.65c-1.84,6.44-2.95,10.12,1.47,10.12c6.08,0,13.07-7.37,22.09-34.79h6.09
			c-5.69,21.72-16.2,47.86-36.99,47.86c-11.42,0-15.83-14.54-11.42-29.09c1.29-4.24,11.78-42.68,13.26-46.95"/>
		<path id="Path_10" class="st0" d="M262.6,433.32c5.16-13.99,24.49-7.37,16.02,6.64c-9.57,16.02-3.68,28.53,8.84,28.53
			c7,0,12.33-3.87,13.81-13.81c2.37-17.31-17.86-30.35-20.43-48.05c-2.97-13.38,5.46-26.63,18.84-29.6
			c1.85-0.41,3.75-0.61,5.64-0.59c12.52,0.18,21.17,5.89,23.01,16.75c2.76,16.57-19.15,16.94-16.57,3.32
			c1.29-6.64,1.11-14.18-4.97-14.73c-6.45-0.55-11.97,6.26-9.58,17.12c2.76,12.52,19.7,23.93,21.17,44.36
			c0.67,17.11-12.67,31.53-29.78,32.19c-0.44,0.02-0.89,0.02-1.33,0.02c-25.22,0-30.56-26.14-24.66-42.16"/>
		<path id="Path_11" class="st0" d="M383,460.75c2.19,5.63-0.6,11.97-6.23,14.16c-0.84,0.32-1.71,0.55-2.6,0.66
			c-0.67,0.06-1.34,0.09-2.03,0.09c-11.42,0-16.38-13.26-11.78-27.62c5.52-17.49,15.65-36.99,18.78-47.13
			c2.76-8.65,1.11-13.07-3.13-13.07c-7.73,0-16.94,13.99-24.3,35.53c-4.79,17.31-10.12,35.34-11.05,39.21
			c-1.29,5.69-4.24,10.13-10.13,10.13h-16.57c2.95-1.47,4.42-4.6,6.45-11.6c2.21-7.37,34.42-121.89,36.26-128.86
			c8.1-29.64,37.74-27.25,33.14,3.13c-2.58,16.57-20.07,39.21-30.93,51.73l-2.21,9.21c7.37-12.15,16.2-18.59,25.22-18.59
			c11.6,0,19.15,10.13,13.26,29.09c-5.69,18.78-13.99,39.76-15.65,45.65C378.03,457.44,378.59,460.75,383,460.75z M381.34,335.21
			c4.61-18.97-3.87-23.93-9.96,1.11l-9.76,39.4c9.05-12.14,15.74-25.88,19.7-40.5"/>
		<path id="Path_12" class="st0" d="M264.32,357.42c0,5.5-4.46,9.96-9.96,9.96c-5.5,0-9.96-4.46-9.96-9.96
			c0-5.5,4.46-9.96,9.96-9.96l0,0C259.86,347.46,264.32,351.92,264.32,357.42"/>
		<path id="Path_13" class="st1" d="M422.07,345.42c1.32-28.53,7.03-57.79,8.18-86.32c0.22-5.5-1.57-6.73-9.64-6.86
			c-20.28-0.32-40.56-0.75-60.84-1.01c-39.69-0.52-79.39-1-119.08-1.42c-28.23-0.32-56.46-0.55-84.69-0.71
			c-35.47-0.19-70.95-0.32-106.44-0.38c-11.15-0.04-15.34,2.77-15.39,10.22c-0.07,11.68-0.17,23.37-0.19,35.05
			c-0.06,39.42-0.22,78.84-0.1,118.26c0.11,38.59,0.52-11.35,0.8,27.23c0.18,24.78,0.47,49.57,0.47,74.35
			c-0.26,5.08,3.25,9.57,8.23,10.55h43.43c1.52-0.26,3.06-0.43,4.61-0.53c42.68-0.5,85.38-0.98,128.09-1.45
			c34.22-0.41,68.44-0.89,102.66-1.42c32.81-0.5,65.62-1.05,98.42-1.66c5.8-0.1,6.64-0.68,6.46-4.65
			c-0.31-6.84-2.77-50.45-3.66-65.42c-0.07-0.64-0.17-1.27-0.3-1.9c-0.06,0.59-0.14,1.17-0.17,1.75
			c-1.12,20.27-2.37,40.54-3.2,60.83c-0.14,3.45-1.9,4.05-6.44,3.94c-22.57-0.54-45.14-0.98-67.71-1.32
			c-30.51-0.51-61.02-0.98-91.53-1.42c-42.87-0.54-85.74-1.01-128.61-1.42c-20.29-0.2-49.45-0.26-69.74-0.39
			c-6.2-0.04-6.36-0.08-6.28-4.12c0.17-9.2,0.59-18.4,0.68-27.6c0.41-39.3,0.79-49.08,1.06-88.38c0.13-19.24,0.1,20.54,0,1.3
			c-0.2-40.35-0.44-80.71-0.73-121.07c-0.02-4.27,0.03-4.27,6.38-4.32c23.47-0.18,55.79-0.36,79.26-0.55
			c54.17-0.46,108.34-0.94,162.51-1.42c27.7-0.26,55.4-0.58,83.1-0.95c10.05-0.12,20.11-0.28,30.16-0.47
			c3.32-0.08,4.69,0.68,4.62,3.05c-0.09,3.65,0.43,7.3,0.58,10.96c1.08,25.59,2.08,21.66,3.22,47.25L422.07,345.42z"/>
		<path id="Path_14" class="st1" d="M481.43,398.16c2.95-8.84,3.68-14.18,0-17.49h16.02c5.69,0,7.18,3.13,5.69,8.65
			c-0.92,3.13-14.91,57.44-16.2,61.65c-1.84,6.44-2.95,10.12,1.47,10.12c6.08,0,13.07-7.37,22.09-34.79h6.08
			c-5.69,21.72-16.2,47.86-36.99,47.86c-11.42,0-15.83-14.54-11.42-29.09c1.29-4.24,11.78-42.68,13.26-46.95"/>
		<path id="Path_15" class="st1" d="M559.45,361.85c-4.47-0.51-8.9-1.01-13.22-1.42l-23.38,90.58c-1.66,6.44-0.37,10.13,4.42,10.13
			c6.08,0,13.07-7.37,22.09-34.79h6.08c-5.69,21.72-16.2,47.86-36.99,47.86c-13.26,0-17.86-12.52-13.26-29.09l23.75-85.78
			c-3.68,0.92-10.86,3.32-15.65,4.42l0.92-5.16c13.47-5.96,26.14-13.56,37.74-22.64l-3.68,14.91c5.44-0.29,10.72-0.44,15.94-0.55"/>
		<path id="Path_16" class="st1" d="M506.83,357.42c0,5.5-4.46,9.96-9.96,9.96c-5.5,0-9.96-4.46-9.96-9.96
			c0-5.5,4.46-9.96,9.96-9.96C502.37,347.46,506.83,351.92,506.83,357.42C506.83,357.42,506.83,357.42,506.83,357.42"/>
	</g>
</g>
</svg>
